<svg width="95" height="17" viewBox="0 0 95 17" fill="none" xmlns="http://www.w3.org/2000/svg">
<path d="M13.4531 7.28906C13.4531 8.01823 13.3359 8.6901 13.1016 9.30469C12.8724 9.91927 12.5495 10.3984 12.1328 10.7422C11.7161 11.0859 11.2344 11.2578 10.6875 11.2578C10.2448 11.2578 9.8724 11.1302 9.57031 10.875C9.26823 10.6146 9.08073 10.2786 9.00781 9.86719H8.92969C8.72656 10.2995 8.42969 10.6406 8.03906 10.8906C7.64844 11.1354 7.19271 11.2578 6.67188 11.2578C5.88021 11.2578 5.25781 10.9948 4.80469 10.4688C4.35156 9.9375 4.125 9.20833 4.125 8.28125C4.125 7.58854 4.26302 6.96875 4.53906 6.42188C4.82031 5.86979 5.22135 5.44271 5.74219 5.14062C6.26302 4.83333 6.85677 4.67969 7.52344 4.67969C7.88281 4.67969 8.29167 4.71354 8.75 4.78125C9.21354 4.84375 9.61979 4.9375 9.96875 5.0625L9.78906 8.71875V8.89062C9.78906 9.80729 10.1198 10.2656 10.7812 10.2656C11.2448 10.2656 11.6198 9.99219 11.9062 9.44531C12.1927 8.89844 12.3359 8.17448 12.3359 7.27344C12.3359 6.34115 12.1432 5.52344 11.7578 4.82031C11.3776 4.11719 10.8333 3.57812 10.125 3.20312C9.42188 2.82292 8.61719 2.63281 7.71094 2.63281C6.5651 2.63281 5.5651 2.8724 4.71094 3.35156C3.86198 3.82552 3.21094 4.50521 2.75781 5.39062C2.30469 6.27083 2.07812 7.29688 2.07812 8.46875C2.07812 10.0417 2.49219 11.2526 3.32031 12.1016C4.14844 12.9453 5.35156 13.3672 6.92969 13.3672C8.03385 13.3672 9.17969 13.138 10.3672 12.6797V13.7656C9.32552 14.2031 8.17969 14.4219 6.92969 14.4219C5.03385 14.4219 3.5599 13.9036 2.50781 12.8672C1.45573 11.8255 0.929688 10.3776 0.929688 8.52344C0.929688 7.17448 1.20833 5.97135 1.76562 4.91406C2.32812 3.85156 3.125 3.03125 4.15625 2.45312C5.1875 1.86979 6.3724 1.57812 7.71094 1.57812C8.83073 1.57812 9.82812 1.8151 10.7031 2.28906C11.5833 2.76302 12.2604 3.4349 12.7344 4.30469C13.2135 5.17448 13.4531 6.16927 13.4531 7.28906ZM5.375 8.3125C5.375 9.61458 5.8776 10.2656 6.88281 10.2656C7.95052 10.2656 8.53125 9.46094 8.625 7.85156L8.71875 5.85156C8.33854 5.74219 7.94531 5.6875 7.53906 5.6875C6.86719 5.6875 6.33854 5.91927 5.95312 6.38281C5.56771 6.84635 5.375 7.48958 5.375 8.3125ZM16.3562 13H14.95V4.42188H16.3562V13ZM14.8406 2.10156C14.8406 1.78906 14.9187 1.5625 15.075 1.42188C15.2365 1.28125 15.4344 1.21094 15.6687 1.21094C15.8875 1.21094 16.0776 1.28125 16.2391 1.42188C16.4057 1.5625 16.4891 1.78906 16.4891 2.10156C16.4891 2.40885 16.4057 2.63542 16.2391 2.78125C16.0776 2.92708 15.8875 3 15.6687 3C15.4344 3 15.2365 2.92708 15.075 2.78125C14.9187 2.63542 14.8406 2.40885 14.8406 2.10156ZM24.1187 13V7.51562C24.1187 6.81771 23.9625 6.29948 23.65 5.96094C23.3427 5.61719 22.8583 5.44531 22.1969 5.44531C21.3167 5.44531 20.676 5.6901 20.275 6.17969C19.8792 6.66406 19.6812 7.45573 19.6812 8.55469V13H18.275V4.42188H19.4078L19.6187 5.59375H19.6969C19.9625 5.17188 20.3349 4.84635 20.8141 4.61719C21.2932 4.38281 21.8219 4.26562 22.4 4.26562C23.4521 4.26562 24.2333 4.52083 24.7437 5.03125C25.2542 5.54167 25.5094 6.33594 25.5094 7.41406V13H24.1187ZM32.9516 10.6328C32.9516 11.4349 32.6521 12.0573 32.0531 12.5C31.4542 12.9375 30.613 13.1562 29.5297 13.1562C28.3995 13.1562 27.501 12.9766 26.8344 12.6172V11.3359C27.7771 11.7943 28.6859 12.0234 29.5609 12.0234C30.2693 12.0234 30.7849 11.9089 31.1078 11.6797C31.4307 11.4505 31.5922 11.1432 31.5922 10.7578C31.5922 10.4193 31.4359 10.1328 31.1234 9.89844C30.8161 9.66406 30.2667 9.39583 29.475 9.09375C28.6677 8.78125 28.1 8.51562 27.7719 8.29688C27.4438 8.07292 27.2016 7.82292 27.0453 7.54688C26.8943 7.27083 26.8188 6.9349 26.8188 6.53906C26.8188 5.83594 27.1052 5.28125 27.6781 4.875C28.251 4.46875 29.0375 4.26562 30.0375 4.26562C31.0115 4.26562 31.9229 4.45833 32.7719 4.84375L32.2953 5.96094C31.4255 5.59635 30.6417 5.41406 29.9438 5.41406C29.3604 5.41406 28.9177 5.50781 28.6156 5.69531C28.3135 5.8776 28.1625 6.13021 28.1625 6.45312C28.1625 6.76562 28.2927 7.02604 28.5531 7.23438C28.8135 7.4375 29.4203 7.72135 30.3734 8.08594C31.087 8.35156 31.613 8.59896 31.9516 8.82812C32.2953 9.05729 32.5479 9.3151 32.7094 9.60156C32.8708 9.88802 32.9516 10.2318 32.9516 10.6328ZM37.1047 12.0078C37.287 12.0078 37.5005 11.9896 37.7453 11.9531C37.9901 11.9167 38.175 11.875 38.3 11.8281V12.9062C38.1698 12.9635 37.9667 13.0182 37.6906 13.0703C37.4198 13.1276 37.1437 13.1562 36.8625 13.1562C35.1854 13.1562 34.3469 12.2734 34.3469 10.5078V5.51562H33.1359V4.84375L34.3625 4.28125L34.925 2.45312H35.7609V4.42188H38.2375V5.51562H35.7609V10.4688C35.7609 10.9635 35.8781 11.3438 36.1125 11.6094C36.3521 11.875 36.6828 12.0078 37.1047 12.0078ZM44.5156 13L44.2422 11.7812H44.1797C43.7526 12.3177 43.3255 12.6823 42.8984 12.875C42.4766 13.0625 41.9427 13.1562 41.2969 13.1562C40.4531 13.1562 39.7917 12.9349 39.3125 12.4922C38.8333 12.0495 38.5938 11.4245 38.5938 10.6172C38.5938 8.8776 39.9661 7.96615 42.7109 7.88281L44.1641 7.82812V7.32031C44.1641 6.66927 44.0234 6.1901 43.7422 5.88281C43.4609 5.57031 43.0104 5.41406 42.3906 5.41406C41.9375 5.41406 41.5078 5.48177 41.1016 5.61719C40.7005 5.7526 40.3229 5.90365 39.9688 6.07031L39.5391 5.01562C39.9714 4.78646 40.4427 4.60677 40.9531 4.47656C41.4635 4.34635 41.9688 4.28125 42.4688 4.28125C43.5052 4.28125 44.276 4.51042 44.7812 4.96875C45.2865 5.42708 45.5391 6.15625 45.5391 7.15625V13H44.5156ZM41.6172 12.0234C42.4036 12.0234 43.0208 11.8125 43.4688 11.3906C43.9219 10.9635 44.1484 10.3594 44.1484 9.57812V8.80469L42.8828 8.85938C41.8984 8.89583 41.1797 9.05208 40.7266 9.32812C40.2786 9.60417 40.0547 10.0391 40.0547 10.6328C40.0547 11.0807 40.1901 11.4245 40.4609 11.6641C40.737 11.9036 41.1224 12.0234 41.6172 12.0234ZM50.6688 12.0078C51.5333 12.0078 52.1609 11.776 52.5516 11.3125C52.9474 10.8438 53.1453 10.0938 53.1453 9.0625V8.72656C53.1453 7.58073 52.9474 6.7474 52.5516 6.22656C52.1557 5.70573 51.5177 5.44531 50.6375 5.44531C49.9188 5.44531 49.3615 5.73177 48.9656 6.30469C48.575 6.8724 48.3797 7.6849 48.3797 8.74219C48.3797 9.80469 48.5698 10.6146 48.95 11.1719C49.3354 11.7292 49.9083 12.0078 50.6688 12.0078ZM53.1297 12.9219L53.1766 11.8672H53.1141C52.5359 12.7266 51.6505 13.1562 50.4578 13.1562C49.3484 13.1562 48.4813 12.7708 47.8563 12C47.2365 11.224 46.9266 10.1328 46.9266 8.72656C46.9266 7.34635 47.2391 6.25781 47.8641 5.46094C48.4943 4.66406 49.3536 4.26562 50.4422 4.26562C51.6036 4.26562 52.4995 4.69792 53.1297 5.5625H53.2156L53.4031 4.42188H54.5203V13.1406C54.5203 14.3698 54.2078 15.2943 53.5828 15.9141C52.963 16.5339 51.9969 16.8438 50.6844 16.8438C49.4344 16.8438 48.4057 16.6615 47.5984 16.2969V15C48.4318 15.4479 49.4865 15.6719 50.7625 15.6719C51.4917 15.6719 52.0672 15.4583 52.4891 15.0312C52.9161 14.6042 53.1297 14.013 53.1297 13.2578V12.9219ZM60.4469 4.26562C60.8271 4.26562 61.163 4.29688 61.4547 4.35938L61.2828 5.65625C60.9651 5.58333 60.6552 5.54688 60.3531 5.54688C59.9 5.54688 59.4781 5.67188 59.0875 5.92188C58.7021 6.17188 58.4 6.51823 58.1813 6.96094C57.9625 7.39844 57.8531 7.88542 57.8531 8.42188V13H56.4469V4.42188H57.6031L57.7594 5.99219H57.8219C58.15 5.42448 58.538 4.99479 58.9859 4.70312C59.4339 4.41146 59.9208 4.26562 60.4469 4.26562ZM67.3969 13L67.1234 11.7812H67.0609C66.6339 12.3177 66.2068 12.6823 65.7797 12.875C65.3578 13.0625 64.824 13.1562 64.1781 13.1562C63.3344 13.1562 62.6729 12.9349 62.1937 12.4922C61.7146 12.0495 61.475 11.4245 61.475 10.6172C61.475 8.8776 62.8474 7.96615 65.5922 7.88281L67.0453 7.82812V7.32031C67.0453 6.66927 66.9047 6.1901 66.6234 5.88281C66.3422 5.57031 65.8917 5.41406 65.2719 5.41406C64.8187 5.41406 64.3891 5.48177 63.9828 5.61719C63.5818 5.7526 63.2042 5.90365 62.85 6.07031L62.4203 5.01562C62.8526 4.78646 63.324 4.60677 63.8344 4.47656C64.3448 4.34635 64.85 4.28125 65.35 4.28125C66.3865 4.28125 67.1573 4.51042 67.6625 4.96875C68.1677 5.42708 68.4203 6.15625 68.4203 7.15625V13H67.3969ZM64.4984 12.0234C65.2849 12.0234 65.9021 11.8125 66.35 11.3906C66.8031 10.9635 67.0297 10.3594 67.0297 9.57812V8.80469L65.7641 8.85938C64.7797 8.89583 64.0609 9.05208 63.6078 9.32812C63.1599 9.60417 62.9359 10.0391 62.9359 10.6328C62.9359 11.0807 63.0714 11.4245 63.3422 11.6641C63.6182 11.9036 64.0036 12.0234 64.4984 12.0234ZM81.1984 13V7.47656C81.1984 6.1224 80.6177 5.44531 79.4563 5.44531C78.6594 5.44531 78.0734 5.67708 77.6984 6.14062C77.3234 6.60417 77.1359 7.3125 77.1359 8.26562V13H75.7375V7.47656C75.7375 6.79948 75.5943 6.29167 75.3078 5.95312C75.0266 5.61458 74.5839 5.44531 73.9797 5.44531C73.188 5.44531 72.6073 5.6875 72.2375 6.17188C71.8729 6.65625 71.6906 7.45052 71.6906 8.55469V13H70.2844V4.42188H71.4172L71.6281 5.59375H71.7063C71.951 5.17708 72.2948 4.85156 72.7375 4.61719C73.1854 4.38281 73.6854 4.26562 74.2375 4.26562C75.5813 4.26562 76.4563 4.74479 76.8625 5.70312H76.9406C77.2167 5.24479 77.5917 4.89062 78.0656 4.64062C78.5448 4.39062 79.0865 4.26562 79.6906 4.26562C80.6594 4.26562 81.3833 4.51562 81.8625 5.01562C82.3469 5.51562 82.5891 6.3151 82.5891 7.41406V13H81.1984ZM85.8594 13H84.4531V4.42188H85.8594V13ZM84.3438 2.10156C84.3438 1.78906 84.4219 1.5625 84.5781 1.42188C84.7396 1.28125 84.9375 1.21094 85.1719 1.21094C85.3906 1.21094 85.5807 1.28125 85.7422 1.42188C85.9089 1.5625 85.9922 1.78906 85.9922 2.10156C85.9922 2.40885 85.9089 2.63542 85.7422 2.78125C85.5807 2.92708 85.3906 3 85.1719 3C84.9375 3 84.7396 2.92708 84.5781 2.78125C84.4219 2.63542 84.3438 2.40885 84.3438 2.10156ZM90.8172 13.1562C89.7026 13.1562 88.838 12.7708 88.2234 12C87.6089 11.2292 87.3016 10.138 87.3016 8.72656C87.3016 7.32552 87.6089 6.23177 88.2234 5.44531C88.8432 4.65885 89.713 4.26562 90.8328 4.26562C91.9839 4.26562 92.8693 4.6875 93.4891 5.53125H93.5906C93.575 5.42708 93.5542 5.21875 93.5281 4.90625C93.5021 4.58854 93.4891 4.375 93.4891 4.26562V0.84375H94.8953V13H93.7625L93.5516 11.8516H93.4891C92.8901 12.7214 91.9995 13.1562 90.8172 13.1562ZM91.0437 11.9922C91.8979 11.9922 92.5203 11.7604 92.9109 11.2969C93.3068 10.8281 93.5047 10.0625 93.5047 9V8.74219C93.5047 7.54948 93.3042 6.70052 92.9031 6.19531C92.5073 5.6849 91.8823 5.42969 91.0281 5.42969C90.3042 5.42969 89.7443 5.71875 89.3484 6.29688C88.9526 6.86979 88.7547 7.6901 88.7547 8.75781C88.7547 9.82031 88.95 10.625 89.3406 11.1719C89.7365 11.7188 90.3042 11.9922 91.0437 11.9922Z" fill="white"/>
</svg>
